<svg xmlns="http://www.w3.org/2000/svg" xmlns:xlink="http://www.w3.org/1999/xlink" data-stacking-context="true" aria-owns="root" width="1201" height="512" viewBox="32 32 1201 512"><!-- Generated by dom-to-svg from about:srcdoc --><style/><g data-stacking-layer="rootBackgroundAndBorders"/><g data-stacking-layer="childStackingContextsWithNegativeStackLevels"/><g data-stacking-layer="inFlowNonInlineNonPositionedDescendants"/><g data-stacking-layer="nonPositionedFloats"/><g data-stacking-layer="inFlowInlineLevelNonPositionedDescendants"/><g data-stacking-layer="childStackingContextsWithStackLevelZeroAndPositionedDescendantsWithStackLevelZero"/><g data-stacking-layer="childStackingContextsWithPositiveStackLevels"/><g data-tag="div" id="root" data-z-index="auto" data-stacking-context="true" aria-owns="svg1"><g data-tag="svg" id="svg1" data-z-index="auto" data-stacking-context="true" mask="url(#mask-for-svg11)"><g data-stacking-layer="rootBackgroundAndBorders"/><g data-stacking-layer="childStackingContextsWithNegativeStackLevels"/><g data-stacking-layer="inFlowNonInlineNonPositionedDescendants"/><g data-stacking-layer="nonPositionedFloats"/><g data-stacking-layer="inFlowInlineLevelNonPositionedDescendants"/><g data-stacking-layer="childStackingContextsWithStackLevelZeroAndPositionedDescendantsWithStackLevelZero"/><g data-stacking-layer="childStackingContextsWithPositiveStackLevels"/><mask id="mask-for-svg11"><rect width="512" height="512" x="32" y="32" fill="#ffffff"/></mask><g class="svg-content" data-view-box="0 0 100 100" data-width="512" data-height="512" transform="matrix(5.12 0 0 5.12 32 32)">
  <path d="M35 55C35 55 28 30 30 15C32 5 38 2 42 8C46 14 43 35 42 45" stroke="rgb(181, 143, 60)" stroke-width="4px" stroke-linecap="round" fill="none" color="rgb(0, 0, 0)"/>
  <path d="M55 55C55 55 58 28 62 14C65 4 72 2 74 10C76 18 68 38 62 48" stroke="rgb(181, 143, 60)" stroke-width="4px" stroke-linecap="round" fill="none" color="rgb(0, 0, 0)"/>
  <circle cx="50" cy="62" r="22" stroke="rgb(181, 143, 60)" stroke-width="4px" fill="none" color="rgb(0, 0, 0)"/>
  <circle cx="42" cy="58" r="2.5" fill="rgb(181, 143, 60)" color="rgb(0, 0, 0)" stroke="none"/>
  <circle cx="58" cy="58" r="2.5" fill="rgb(181, 143, 60)" color="rgb(0, 0, 0)" stroke="none"/>
  <ellipse cx="50" cy="66" rx="4" ry="2.5" stroke="rgb(181, 143, 60)" stroke-width="2px" fill="none" color="rgb(0, 0, 0)"/>
</g></g></g></svg>